<?xml version="1.0" encoding="UTF-8" standalone="no"?>
<svg
   xmlns:dc="http://purl.org/dc/elements/1.1/"
   xmlns:cc="http://creativecommons.org/ns#"
   xmlns:rdf="http://www.w3.org/1999/02/22-rdf-syntax-ns#"
   xmlns:svg="http://www.w3.org/2000/svg"
   xmlns="http://www.w3.org/2000/svg"
   xmlns:sodipodi="http://sodipodi.sourceforge.net/DTD/sodipodi-0.dtd"
   xmlns:inkscape="http://www.inkscape.org/namespaces/inkscape"
   id="Layer_4"
   viewBox="0 0 1650.3 200"
   version="1.1"
   inkscape:version="0.91 r13725"
   sodipodi:docname="gdg-lviv.svg"
   width="1650.3"
   height="200">
  <metadata
     id="metadata63">
    <rdf:RDF>
      <cc:Work
         rdf:about="">
        <dc:format>image/svg+xml</dc:format>
        <dc:type
           rdf:resource="http://purl.org/dc/dcmitype/StillImage" />
        <dc:title></dc:title>
      </cc:Work>
    </rdf:RDF>
  </metadata>
  <defs
     id="defs61" />
  <sodipodi:namedview
     pagecolor="#ffffff"
     bordercolor="#666666"
     borderopacity="1"
     objecttolerance="10"
     gridtolerance="10"
     guidetolerance="10"
     inkscape:pageopacity="0"
     inkscape:pageshadow="2"
     inkscape:window-width="1366"
     inkscape:window-height="684"
     id="namedview59"
     showgrid="false"
     inkscape:zoom="0.1460562"
     inkscape:cx="-650.38769"
     inkscape:cy="-80.110593"
     inkscape:window-x="0"
     inkscape:window-y="28"
     inkscape:window-maximized="1"
     inkscape:current-layer="Layer_4" />
  <style
     id="style3">.st0{fill:none;} .st1{fill:#FFC107;} .st2{fill:#0F9D58;} .st3{opacity:0.2;fill:#BF360C;enable-background:new ;} .st4{opacity:0.2;fill:#263238;enable-background:new ;} .st5{opacity:0.2;fill:#FFFFFF;enable-background:new ;} .st6{fill:url(#XMLID_91_);} .st7{fill:url(#XMLID_92_);} .st8{fill:#4285F4;} .st9{fill:#DB4437;} .st10{opacity:0.2;fill:#1A237E;enable-background:new ;} .st11{opacity:0.2;fill:#3E2723;enable-background:new ;} .st12{fill:url(#XMLID_93_);} .st13{fill:#767676;}</style>
  <g
     id="XMLID_1_">
    <g
       id="XMLID_50_">
      <g
         id="XMLID_72_">
        <path
           id="XMLID_7_"
           class="st0"
           d="M 122.5,90.6 70.1,0 0,0 57.8,100 0,200 l 70.1,0 52.4,-90.6 c 3.3,-5.8 3.3,-13 0,-18.8 z"
           inkscape:connector-curvature="0"
           style="fill:none" />
        <path
           id="XMLID_80_"
           class="st1"
           d="M 92.4,159.8 75.8,131.1 35.9,200 l 34.2,0 22.8,-39.4 z"
           inkscape:connector-curvature="0"
           style="fill:#ffc107" />
        <path
           id="XMLID_8_"
           class="st0"
           d="M 122.5,90.6 70.1,0 0,0 57.8,100 0,200 l 70.1,0 52.4,-90.6 c 3.3,-5.8 3.3,-13 0,-18.8 z"
           inkscape:connector-curvature="0"
           style="fill:none" />
        <path
           id="XMLID_39_"
           class="st2"
           d="m 57.8,100 18,31.1 L 35.9,200 0,200 Z"
           inkscape:connector-curvature="0"
           style="fill:#0f9d58" />
        <path
           id="XMLID_9_"
           class="st0"
           d="M 122.5,90.6 70.1,0 0,0 57.8,100 0,200 l 70.1,0 52.4,-90.6 c 3.3,-5.8 3.3,-13 0,-18.8 z"
           inkscape:connector-curvature="0"
           style="fill:none" />
        <path
           id="XMLID_38_"
           class="st3"
           d="m 70.1,198.4 -33.3,0 -0.9,1.6 34.2,0 22.8,-39.4 -0.5,-0.8 z"
           inkscape:connector-curvature="0"
           style="opacity:0.2;fill:#bf360c;enable-background:new" />
        <path
           id="XMLID_10_"
           class="st0"
           d="M 122.5,90.6 70.1,0 0,0 57.8,100 0,200 l 70.1,0 52.4,-90.6 c 3.3,-5.8 3.3,-13 0,-18.8 z"
           inkscape:connector-curvature="0"
           style="fill:none" />
        <path
           id="XMLID_37_"
           class="st4"
           d="M 0.9,198.4 0,200 l 35.9,0 0.9,-1.6 z"
           inkscape:connector-curvature="0"
           style="opacity:0.2;fill:#263238;enable-background:new" />
        <path
           id="XMLID_11_"
           class="st0"
           d="M 122.5,90.6 70.1,0 0,0 57.8,100 0,200 l 70.1,0 52.4,-90.6 c 3.3,-5.8 3.3,-13 0,-18.8 z"
           inkscape:connector-curvature="0"
           style="fill:none" />
        <path
           id="XMLID_36_"
           class="st5"
           d="m 0,200 0.9,0 57.4,-99.2 -0.5,-0.8 z"
           inkscape:connector-curvature="0"
           style="opacity:0.2;fill:#ffffff;enable-background:new" />
        <path
           id="XMLID_12_"
           class="st0"
           d="M 122.5,90.6 70.1,0 0,0 57.8,100 0,200 l 70.1,0 52.4,-90.6 c 3.3,-5.8 3.3,-13 0,-18.8 z"
           inkscape:connector-curvature="0"
           style="fill:none" />
        <radialGradient
           id="XMLID_91_"
           cx="255.347"
           cy="61.085999"
           r="44.264"
           gradientTransform="matrix(1.5625,0,0,-1.5625,-306.36,255.406)"
           gradientUnits="userSpaceOnUse">
          <stop
             offset="0"
             stop-color="#BF360C"
             stop-opacity=".2"
             id="stop20" />
          <stop
             offset="1"
             stop-color="#BF360C"
             stop-opacity=".02"
             id="stop22" />
        </radialGradient>
        <path
           id="XMLID_79_"
           class="st6"
           d="m 92.9,160.6 -17.1,-29.5 -4.2,7.2 z"
           inkscape:connector-curvature="0"
           style="fill:url(#XMLID_91_)" />
        <path
           id="XMLID_13_"
           class="st0"
           d="M 122.5,90.6 70.1,0 0,0 57.8,100 0,200 l 70.1,0 52.4,-90.6 c 3.3,-5.8 3.3,-13 0,-18.8 z"
           inkscape:connector-curvature="0"
           style="fill:none" />
        <radialGradient
           id="XMLID_92_"
           cx="255.222"
           cy="60.806"
           r="44.623001"
           gradientTransform="matrix(1.5625,0,0,-1.5625,-306.36,255.406)"
           gradientUnits="userSpaceOnUse">
          <stop
             offset="0"
             stop-color="#263238"
             stop-opacity=".2"
             id="stop27" />
          <stop
             offset="1"
             stop-color="#263238"
             stop-opacity=".02"
             id="stop29" />
        </radialGradient>
        <path
           id="XMLID_78_"
           class="st7"
           d="m 71.6,138.3 4.2,-7.2 -18,-31.1 -8.5,14.8 z"
           inkscape:connector-curvature="0"
           style="fill:url(#XMLID_92_)" />
        <path
           id="XMLID_14_"
           class="st0"
           d="M 122.5,90.6 70.1,0 0,0 57.8,100 0,200 l 70.1,0 52.4,-90.6 c 3.3,-5.8 3.3,-13 0,-18.8 z"
           inkscape:connector-curvature="0"
           style="fill:none" />
        <g
           id="XMLID_75_">
          <g
             id="XMLID_76_">
            <path
               id="XMLID_77_"
               class="st8"
               d="M 35.9,0 0,0 92.9,160.6 110.8,129.5 Z"
               inkscape:connector-curvature="0"
               style="fill:#4285f4" />
          </g>
        </g>
        <path
           id="XMLID_15_"
           class="st0"
           d="M 122.5,90.6 70.1,0 0,0 57.8,100 0,200 l 70.1,0 52.4,-90.6 c 3.3,-5.8 3.3,-13 0,-18.8 z"
           inkscape:connector-curvature="0"
           style="fill:none" />
        <path
           id="XMLID_35_"
           class="st9"
           d="m 122.5,109.4 c 3.4,-5.8 3.4,-13 0,-18.8 L 70.1,0 35.9,0 l 74.9,129.5 11.7,-20.1 z"
           inkscape:connector-curvature="0"
           style="fill:#db4437" />
        <path
           id="XMLID_16_"
           class="st0"
           d="M 122.5,90.6 70.1,0 0,0 57.8,100 0,200 l 70.1,0 52.4,-90.6 c 3.3,-5.8 3.3,-13 0,-18.8 z"
           inkscape:connector-curvature="0"
           style="fill:none" />
        <path
           id="XMLID_34_"
           class="st10"
           d="M 110.8,129.5 110.4,128.7 92.9,159 0.9,0 0,0 92.9,160.6 110.8,129.5 Z"
           inkscape:connector-curvature="0"
           style="opacity:0.2;fill:#1a237e;enable-background:new" />
        <path
           id="XMLID_17_"
           class="st0"
           d="M 122.5,90.6 70.1,0 0,0 57.8,100 0,200 l 70.1,0 52.4,-90.6 c 3.3,-5.8 3.3,-13 0,-18.8 z"
           inkscape:connector-curvature="0"
           style="fill:none" />
        <path
           id="XMLID_2_"
           class="st5"
           d="m 70.1,1.6 52.4,90.6 c 1.5,2.7 2.3,5.6 2.5,8.6 0.1,-3.5 -0.7,-7 -2.5,-10.2 L 70.1,0 0,0 l 0.9,1.6 69.2,0 z"
           inkscape:connector-curvature="0"
           style="opacity:0.2;fill:#ffffff;enable-background:new" />
        <path
           id="XMLID_18_"
           class="st0"
           d="M 122.5,90.6 70.1,0 0,0 57.8,100 0,200 l 70.1,0 52.4,-90.6 c 3.3,-5.8 3.3,-13 0,-18.8 z"
           inkscape:connector-curvature="0"
           style="fill:none" />
        <path
           id="XMLID_74_"
           class="st11"
           d="m 110.8,129.5 11.6,-20.1 c 1.8,-3.1 2.6,-6.7 2.5,-10.2 -0.1,3 -0.9,5.9 -2.5,8.6 l -12.1,20.9 0.5,0.8 z"
           inkscape:connector-curvature="0"
           style="opacity:0.2;fill:#3e2723;enable-background:new" />
        <path
           id="XMLID_19_"
           class="st0"
           d="M 122.5,90.6 70.1,0 0,0 57.8,100 0,200 l 70.1,0 52.4,-90.6 c 3.3,-5.8 3.3,-13 0,-18.8 z"
           inkscape:connector-curvature="0"
           style="fill:none" />
        <radialGradient
           id="XMLID_93_"
           cx="195.071"
           cy="162.46001"
           r="134.35001"
           gradientTransform="matrix(1.5625,0,0,-1.5625,-306.36,255.406)"
           gradientUnits="userSpaceOnUse">
          <stop
             offset="0"
             stop-color="#FFF"
             stop-opacity=".1"
             id="stop46" />
          <stop
             offset="1"
             stop-color="#FFF"
             stop-opacity="0"
             id="stop48" />
        </radialGradient>
        <path
           id="XMLID_73_"
           class="st12"
           d="M 122.5,90.6 70.1,0 0,0 57.8,100 0,200 l 70.1,0 52.4,-90.6 c 3.3,-5.8 3.3,-13 0,-18.8 z"
           inkscape:connector-curvature="0"
           style="fill:url(#XMLID_93_)" />
      </g>
    </g>
  </g>
  <path
     style="fill:#767676"
     inkscape:connector-curvature="0"
     d="m 359.9,104.4 c 0,22 -6.5,39.6 -19.6,52.7 -14.8,15.6 -34.1,23.4 -57.9,23.4 -22.8,0 -42.1,-7.9 -58.1,-23.7 -15.9,-15.8 -23.9,-35.4 -23.9,-58.7 0,-23.3 8,-42.9 23.9,-58.7 15.9,-15.8 35.3,-23.7 58.1,-23.7 11.3,0 22.1,2.2 32.4,6.6 10.3,4.4 18.5,10.3 24.7,17.6 L 325.6,53.8 C 315.1,41.2 300.7,35 282.3,35 265.7,35 251.3,40.8 239.2,52.5 227.1,64.2 221,79.3 221,98 c 0,18.7 6.1,33.8 18.2,45.5 12.1,11.7 26.5,17.5 43.1,17.5 17.6,0 32.3,-5.9 44.1,-17.6 7.6,-7.6 12,-18.3 13.2,-31.9 l -57.3,0 0,-19 76.4,0 c 0.8,4.1 1.2,8.1 1.2,11.9 z"
     class="st13"
     id="XMLID_3_" />
  <path
     style="fill:#767676"
     inkscape:connector-curvature="0"
     d="m 380.3,176.9 0,-157.8 48.2,0 c 24.2,0 43.6,7.3 58.2,21.9 14.5,14.6 21.8,33.6 21.8,57 0,23.4 -7.3,42.3 -21.8,57 -14.5,14.6 -33.9,21.9 -58.2,21.9 l -48.2,0 z m 20.3,-19.4 28,0 c 18.2,0 32.6,-5.2 43.3,-15.6 10.6,-10.4 16,-25 16,-43.8 0,-18.7 -5.3,-33.2 -16,-43.7 C 461.2,43.9 446.8,38.6 428.6,38.6 l -28,0 0,118.9 z"
     class="st13"
     id="XMLID_20_" />
  <path
     style="fill:#767676"
     inkscape:connector-curvature="0"
     d="m 681,104.4 c 0,22 -6.5,39.6 -19.6,52.7 -14.8,15.6 -34.1,23.4 -57.9,23.4 -22.8,0 -42.1,-7.9 -58.1,-23.7 -15.9,-15.8 -23.9,-35.4 -23.9,-58.7 0,-23.3 8,-42.9 23.9,-58.7 15.9,-15.8 35.3,-23.7 58.1,-23.7 11.3,0 22.1,2.2 32.4,6.6 10.3,4.4 18.5,10.3 24.7,17.6 L 646.7,53.8 C 636.2,41.2 621.8,35 603.4,35 c -16.6,0 -31,5.8 -43.1,17.5 -12.1,11.7 -18.2,26.8 -18.2,45.5 0,18.7 6.1,33.8 18.2,45.5 12.1,11.7 26.5,17.5 43.1,17.5 17.6,0 32.3,-5.9 44.1,-17.6 7.6,-7.6 12,-18.3 13.2,-31.9 l -57.3,0 0,-19 76.4,0 c 0.8,4.1 1.2,8.1 1.2,11.9 z"
     class="st13"
     id="XMLID_23_" />
  <path
     inkscape:connector-curvature="0"
     d="m 847.43833,152.46303 0,-42.23531 -34.14775,0 0,-17.483943 54.84334,0 0,67.513313 q -12.10693,8.74195 -26.69732,13.27094 -14.5904,4.42363 -31.14688,4.42363 -36.2173,0 -56.70594,-21.48628 -20.38517,-21.59162 -20.38517,-60.035229 0,-38.548932 20.38517,-60.035224 20.48864,-21.591618 56.70594,-21.591618 15.1078,0 28.6634,3.7917 13.65909,3.7917 25.14516,11.16445 l 0,22.644862 Q 852.50874,42.39845 839.47052,37.342852 q -13.03823,-5.055597 -27.42167,-5.055597 -28.35298,0 -42.63294,16.114716 -14.17649,16.114719 -14.17649,48.02818 0,31.808129 14.17649,47.922869 14.27996,16.11471 42.63294,16.11471 11.07214,0 19.7643,-1.89586 8.69215,-2.00117 15.62518,-6.10884 z"
     style="font-style:normal;font-weight:normal;font-size:125.00002289px;line-height:125%;font-family:sans-serif;letter-spacing:0px;word-spacing:0px;fill:#757575;fill-opacity:1;stroke:none;stroke-width:1px;stroke-linecap:butt;stroke-linejoin:miter;stroke-opacity:1"
     id="path4220" />
  <path
     inkscape:connector-curvature="0"
     d="m 972.75017,75.049185 q -3.20782,-1.895849 -7.0365,-2.738448 -3.72522,-0.947925 -8.27824,-0.947925 -16.14257,0 -24.83471,10.743145 -8.58868,10.63782 -8.58868,30.649563 l 0,62.14172 -19.14344,0 0,-117.963947 19.14344,0 0,18.326542 q 6.00172,-10.743145 15.62518,-15.904068 9.62345,-5.266247 23.38603,-5.266247 1.96607,0 4.34606,0.315974 2.38,0.21065 5.27739,0.737275 l 0.10342,19.906416 z"
     style="font-style:normal;font-weight:normal;font-size:125.00002289px;line-height:125%;font-family:sans-serif;letter-spacing:0px;word-spacing:0px;fill:#757575;fill-opacity:1;stroke:none;stroke-width:1px;stroke-linecap:butt;stroke-linejoin:miter;stroke-opacity:1"
     id="path4222" />
  <path
     inkscape:connector-curvature="0"
     d="m 1045.5987,115.59929 q -23.0756,0 -31.9747,5.37158 -8.8991,5.37157 -8.8991,18.32655 0,10.32183 6.6226,16.43068 6.726,6.00353 18.2121,6.00353 15.8321,0 25.3521,-11.3751 9.6234,-11.48041 9.6234,-30.4389 l 0,-4.31834 -18.9364,0 z m 37.9764,-8.00469 0,67.30264 -19.04,0 0,-17.90523 q -6.5191,10.74314 -16.246,15.90407 -9.7269,5.05558 -23.7999,5.05558 -17.7982,0 -28.353,-10.11118 -10.45127,-10.21652 -10.45127,-27.27917 0,-19.90642 13.03822,-30.01761 13.14175,-10.1112 39.11465,-10.1112 l 26.6973,0 0,-1.895851 q 0,-13.376268 -8.6921,-20.643691 -8.5887,-7.372745 -24.2138,-7.372745 -9.9339,0 -19.3504,2.422474 -9.4165,2.422472 -18.10867,7.267421 l 0,-17.905242 q 10.45127,-4.107673 20.28167,-6.108847 9.8304,-2.106499 19.1434,-2.106499 25.1452,0 37.5625,13.270944 12.4174,13.270944 12.4174,40.234136 z"
     style="font-style:normal;font-weight:normal;font-size:125.00002289px;line-height:125%;font-family:sans-serif;letter-spacing:0px;word-spacing:0px;fill:#757575;fill-opacity:1;stroke:none;stroke-width:1px;stroke-linecap:butt;stroke-linejoin:miter;stroke-opacity:1"
     id="path4224" />
  <path
     inkscape:connector-curvature="0"
     d="m 1219.2347,103.69757 0,71.19967 -19.04,0 0,-70.56772 q 0,-16.746665 -6.4155,-25.067336 -6.4157,-8.320673 -19.247,-8.320673 -15.4182,0 -24.3173,10.005871 -8.8991,10.005871 -8.8991,27.279158 l 0,66.6707 -19.1435,0 0,-117.963947 19.1435,0 0,18.326542 q 6.8295,-10.637821 16.0391,-15.904068 9.313,-5.266247 21.4199,-5.266247 19.9712,0 30.2155,12.638994 10.2444,12.53367 10.2444,36.969056 z"
     style="font-style:normal;font-weight:normal;font-size:125.00002289px;line-height:125%;font-family:sans-serif;letter-spacing:0px;word-spacing:0px;fill:#757575;fill-opacity:1;stroke:none;stroke-width:1px;stroke-linecap:butt;stroke-linejoin:miter;stroke-opacity:1"
     id="path4226" />
  <path
     inkscape:connector-curvature="0"
     d="m 1310.0884,115.59929 q -23.0755,0 -31.9747,5.37158 -8.8991,5.37157 -8.8991,18.32655 0,10.32183 6.6227,16.43068 6.7261,6.00353 18.2121,6.00353 15.832,0 25.3521,-11.3751 9.6233,-11.48041 9.6233,-30.4389 l 0,-4.31834 -18.9364,0 z m 37.9764,-8.00469 0,67.30264 -19.04,0 0,-17.90523 q -6.519,10.74314 -16.246,15.90407 -9.7269,5.05558 -23.7999,5.05558 -17.7982,0 -28.353,-10.11118 -10.4513,-10.21652 -10.4513,-27.27917 0,-19.90642 13.0383,-30.01761 13.1416,-10.1112 39.1147,-10.1112 l 26.6972,0 0,-1.895851 q 0,-13.376268 -8.692,-20.643691 -8.5887,-7.372745 -24.2138,-7.372745 -9.934,0 -19.3505,2.422474 -9.4165,2.422472 -18.1087,7.267421 l 0,-17.905242 q 10.4514,-4.107673 20.2817,-6.108847 9.8305,-2.106499 19.1434,-2.106499 25.1453,0 37.5626,13.270944 12.4173,13.270944 12.4173,40.234136 z"
     style="font-style:normal;font-weight:normal;font-size:125.00002289px;line-height:125%;font-family:sans-serif;letter-spacing:0px;word-spacing:0px;fill:#757575;fill-opacity:1;stroke:none;stroke-width:1px;stroke-linecap:butt;stroke-linejoin:miter;stroke-opacity:1"
     id="path4228" />
  <path
     inkscape:connector-curvature="0"
     d="m 1463.6498,74.838536 0,-63.826917 19.04,0 0,163.885621 -19.04,0 0,-17.69458 q -6.0018,10.53249 -15.2113,15.69342 -9.1061,5.05558 -21.9373,5.05558 -21.0061,0 -34.2513,-17.06263 -13.1417,-17.06264 -13.1417,-44.86844 0,-27.805786 13.1417,-44.868428 13.2452,-17.062642 34.2513,-17.062642 12.8312,0 21.9373,5.160923 9.2095,5.055597 15.2113,15.588093 z m -64.8808,41.182054 q 0,21.38097 8.5887,33.59866 8.6922,12.11238 23.7999,12.11238 15.1079,0 23.8,-12.11238 8.6922,-12.21769 8.6922,-33.59866 0,-21.380964 -8.6922,-33.493333 -8.6921,-12.217695 -23.8,-12.217695 -15.1077,0 -23.7999,12.217695 -8.5887,12.112369 -8.5887,33.493333 z"
     style="font-style:normal;font-weight:normal;font-size:125.00002289px;line-height:125%;font-family:sans-serif;letter-spacing:0px;word-spacing:0px;fill:#757575;fill-opacity:1;stroke:none;stroke-width:1px;stroke-linecap:butt;stroke-linejoin:miter;stroke-opacity:1"
     id="path4230" />
  <path
     inkscape:connector-curvature="0"
     d="m 1574.5782,115.59929 q -23.0755,0 -31.9747,5.37158 -8.8991,5.37157 -8.8991,18.32655 0,10.32183 6.6227,16.43068 6.7259,6.00353 18.2119,6.00353 15.8322,0 25.3523,-11.3751 9.6233,-11.48041 9.6233,-30.4389 l 0,-4.31834 -18.9364,0 z m 37.9764,-8.00469 0,67.30264 -19.04,0 0,-17.90523 q -6.5191,10.74314 -16.246,15.90407 -9.7269,5.05558 -23.7999,5.05558 -17.7982,0 -28.353,-10.11118 -10.4513,-10.21652 -10.4513,-27.27917 0,-19.90642 13.0383,-30.01761 13.1416,-10.1112 39.1147,-10.1112 l 26.6972,0 0,-1.895851 q 0,-13.376268 -8.692,-20.643691 -8.5887,-7.372745 -24.214,-7.372745 -9.9338,0 -19.3503,2.422474 -9.4165,2.422472 -18.1087,7.267421 l 0,-17.905242 q 10.4514,-4.107673 20.2817,-6.108847 9.8305,-2.106499 19.1434,-2.106499 25.1453,0 37.5626,13.270944 12.4173,13.270944 12.4173,40.234136 z"
     style="font-style:normal;font-weight:normal;font-size:125.00002289px;line-height:125%;font-family:sans-serif;letter-spacing:0px;word-spacing:0px;fill:#757575;fill-opacity:1;stroke:none;stroke-width:1px;stroke-linecap:butt;stroke-linejoin:miter;stroke-opacity:1"
     id="path4232" />
</svg>
