<?xml version="1.0" encoding="UTF-8" standalone="no"?>
<svg
   xmlns:dc="http://purl.org/dc/elements/1.1/"
   xmlns:cc="http://creativecommons.org/ns#"
   xmlns:rdf="http://www.w3.org/1999/02/22-rdf-syntax-ns#"
   xmlns:svg="http://www.w3.org/2000/svg"
   xmlns="http://www.w3.org/2000/svg"
   xmlns:sodipodi="http://sodipodi.sourceforge.net/DTD/sodipodi-0.dtd"
   xmlns:inkscape="http://www.inkscape.org/namespaces/inkscape"
   id="Layer_4"
   viewBox="95 151 1650.1178 212.59849"
   version="1.1"
   inkscape:version="0.91 r13725"
   sodipodi:docname="gdg-logo.svg"
   width="1650.1182"
   height="212.59843">
  <metadata
     id="metadata22">
    <rdf:RDF>
      <cc:Work
         rdf:about="">
        <dc:format>image/svg+xml</dc:format>
        <dc:type
           rdf:resource="http://purl.org/dc/dcmitype/StillImage" />
        <dc:title></dc:title>
      </cc:Work>
    </rdf:RDF>
  </metadata>
  <defs
     id="defs20" />
  <sodipodi:namedview
     pagecolor="#ffffff"
     bordercolor="#666666"
     borderopacity="1"
     objecttolerance="10"
     gridtolerance="10"
     guidetolerance="10"
     inkscape:pageopacity="0"
     inkscape:pageshadow="2"
     inkscape:window-width="1366"
     inkscape:window-height="684"
     id="namedview18"
     showgrid="false"
     units="px"
     height="499mm"
     inkscape:zoom="0.5842248"
     inkscape:cx="732.88588"
     inkscape:cy="-93.578018"
     inkscape:window-x="0"
     inkscape:window-y="28"
     inkscape:window-maximized="1"
     inkscape:current-layer="flowRoot4165" />
  <style
     id="style3">.st0{fill:#757575;}</style>
  <path
     style="fill:#757575"
     inkscape:connector-curvature="0"
     d="m 454.9,267.99863 c 0,22 -6.5,39.6 -19.6,52.7 -14.8,15.6 -34.1,23.4 -57.9,23.4 -22.8,0 -42.1,-7.9 -58.1,-23.7 -15.9,-15.8 -23.9,-35.4 -23.9,-58.7 0,-23.3 8,-42.9 23.9,-58.7 15.9,-15.8 35.3,-23.7 58.1,-23.7 11.3,0 22.1,2.2 32.4,6.6 10.3,4.4 18.5,10.3 24.7,17.6 l -13.9,13.9 c -10.5,-12.6 -24.9,-18.8 -43.3,-18.8 -16.6,0 -31,5.8 -43.1,17.5 -12.1,11.7 -18.2,26.8 -18.2,45.5 0,18.7 6.1,33.8 18.2,45.5 12.1,11.7 26.5,17.5 43.1,17.5 17.6,0 32.3,-5.9 44.1,-17.6 7.6,-7.6 12,-18.3 13.2,-31.9 l -57.3,0 0,-19 76.4,0 c 0.8,4.1 1.2,8.1 1.2,11.9 z"
     class="st0"
     id="XMLID_3_" />
  <path
     style="fill:#757575"
     inkscape:connector-curvature="0"
     d="m 475.3,340.49863 0,-157.8 48.2,0 c 24.2,0 43.6,7.3 58.2,21.9 14.5,14.6 21.8,33.6 21.8,57 0,23.4 -7.3,42.3 -21.8,57 -14.5,14.6 -33.9,21.9 -58.2,21.9 l -48.2,0 z m 20.3,-19.4 28,0 c 18.2,0 32.6,-5.2 43.3,-15.6 10.6,-10.4 16,-25 16,-43.8 0,-18.7 -5.3,-33.2 -16,-43.7 -10.7,-10.5 -25.1,-15.8 -43.3,-15.8 l -28,0 0,118.9 z"
     class="st0"
     id="XMLID_20_" />
  <path
     style="fill:#757575"
     inkscape:connector-curvature="0"
     d="m 776,267.99863 c 0,22 -6.5,39.6 -19.6,52.7 -14.8,15.6 -34.1,23.4 -57.9,23.4 -22.8,0 -42.1,-7.9 -58.1,-23.7 -15.9,-15.8 -23.9,-35.4 -23.9,-58.7 0,-23.3 8,-42.9 23.9,-58.7 15.9,-15.8 35.3,-23.7 58.1,-23.7 11.3,0 22.1,2.2 32.4,6.6 10.3,4.4 18.5,10.3 24.7,17.6 l -13.9,13.9 c -10.5,-12.6 -24.9,-18.8 -43.3,-18.8 -16.6,0 -31,5.8 -43.1,17.5 -12.1,11.7 -18.2,26.8 -18.2,45.5 0,18.7 6.1,33.8 18.2,45.5 12.1,11.7 26.5,17.5 43.1,17.5 17.6,0 32.3,-5.9 44.1,-17.6 7.6,-7.6 12,-18.3 13.2,-31.9 l -57.3,0 0,-19 76.4,0 c 0.8,4.1 1.2,8.1 1.2,11.9 z"
     class="st0"
     id="XMLID_23_" />
  <g
     id="XMLID_261_"
     transform="translate(0,12.598622)">
    <path
       id="XMLID_259_"
       class="st0"
       d="M 127.3,151 95,151 187.3,311 203.5,283 127.3,151 Z"
       inkscape:connector-curvature="0"
       style="fill:#757575" />
    <path
       id="XMLID_258_"
       class="st0"
       d="m 215.9,242 -52.6,-91 -32.2,0 74.3,128.8 10.5,-18.2 c 1.7,-2.8 2.8,-6.2 2.8,-9.8 -0.1,-3.6 -1.1,-6.9 -2.8,-9.8 z"
       inkscape:connector-curvature="0"
       style="fill:#757575" />
    <path
       id="XMLID_257_"
       class="st0"
       d="m 151.3,255.1 -55.4,95.9 32.3,0 39.3,-68 -16.2,-27.9 z"
       inkscape:connector-curvature="0"
       style="fill:#757575" />
    <path
       id="XMLID_256_"
       class="st0"
       d="M 169.3,286.3 132,351 l 32.2,0 21.3,-36.8 -16.2,-27.9 z"
       inkscape:connector-curvature="0"
       style="fill:#757575" />
  </g>
  <flowRoot
     xml:space="preserve"
     id="flowRoot4157"
     style="font-style:normal;font-weight:normal;font-size:40px;line-height:125%;font-family:sans-serif;letter-spacing:0px;word-spacing:0px;fill:#000000;fill-opacity:1;stroke:none;stroke-width:1px;stroke-linecap:butt;stroke-linejoin:miter;stroke-opacity:1"
     transform="translate(94.999512,151.00001)"><flowRegion
       id="flowRegion4159"><rect
         id="rect4161"
         width="956.16339"
         height="142.81934"
         x="711.67603"
         y="33.469078" /></flowRegion><flowPara
       id="flowPara4163"></flowPara></flowRoot>  <g
     transform="matrix(1.6953837,0,0,1.7256442,-420.44772,99.904817)"
     style="font-style:normal;font-weight:normal;font-size:125.00002289px;line-height:125%;font-family:sans-serif;letter-spacing:0px;word-spacing:0px;fill:#000000;fill-opacity:1;stroke:none;stroke-width:1px;stroke-linecap:butt;stroke-linejoin:miter;stroke-opacity:1"
     id="flowRoot4165">
    <path
       d="m 798.18117,125.69669 0,-24.4751 -20.14161,0 0,-10.131837 32.34864,0 0,39.123547 q -7.14112,5.06591 -15.74707,7.69043 -8.60596,2.56347 -18.37159,2.56347 -21.36231,0 -33.44727,-12.45117 -12.02393,-12.51221 -12.02393,-34.790046 0,-22.338871 12.02393,-34.790046 12.08496,-12.512209 33.44727,-12.512209 8.91114,0 16.90674,2.197266 8.05664,2.197266 14.83155,6.469728 l 0,13.122561 q -6.83594,-5.798341 -14.52637,-8.728029 -7.69043,-2.929688 -16.17432,-2.929688 -16.72364,0 -25.14649,9.33838 -8.36182,9.338381 -8.36182,27.832037 0,18.432616 8.36182,27.771006 8.42285,9.33838 25.14649,9.33838 6.53076,0 11.65772,-1.09864 5.12695,-1.15967 9.21631,-3.54004 z"
       style="font-size:125.00002289px;fill:#757575;fill-opacity:1"
       id="path4220" />
    <path
       d="m 872.09475,80.835845 q -1.89209,-1.098633 -4.15039,-1.586914 -2.19727,-0.549317 -4.88281,-0.549317 -9.52149,0 -14.64844,6.225587 -5.06592,6.164552 -5.06592,17.761229 l 0,36.01075 -11.29151,0 0,-68.359384 11.29151,0 0,10.620119 q 3.54004,-6.225587 9.21631,-9.21631 5.67627,-3.051758 13.79395,-3.051758 1.15966,0 2.56347,0.183105 1.40381,0.12207 3.1128,0.427246 l 0.061,11.535647 z"
       style="font-size:125.00002289px;fill:#757575;fill-opacity:1"
       id="path4222" />
    <path
       d="m 915.06351,104.33438 q -13.61084,0 -18.85986,3.1128 -5.24903,3.11279 -5.24903,10.62012 0,5.98144 3.90625,9.52148 3.96729,3.47901 10.74219,3.47901 9.33838,0 14.95362,-6.5918 5.67627,-6.65283 5.67627,-17.63916 l 0,-2.50245 -11.16944,0 z m 22.39991,-4.638668 0,39.001468 -11.23047,0 0,-10.37597 q -3.84521,6.22558 -9.58252,9.21631 -5.73731,2.92968 -14.03809,2.92968 -10.49805,0 -16.72364,-5.85937 -6.16455,-5.92041 -6.16455,-15.80811 0,-11.53565 7.69043,-17.39502 7.75147,-5.85938 23.0713,-5.85938 l 15.74707,0 0,-1.098633 q 0,-7.751466 -5.12695,-11.962893 -5.06592,-4.272461 -14.28223,-4.272461 -5.85938,0 -11.41358,1.403809 -5.5542,1.403808 -10.68115,4.211426 l 0,-10.375978 q 6.16455,-2.380372 11.96289,-3.54004 5.79834,-1.220703 11.29151,-1.220703 14.83154,0 22.15576,7.690431 7.32422,7.690431 7.32422,23.315434 z"
       style="font-size:125.00002289px;fill:#757575;fill-opacity:1"
       id="path4224" />
    <path
       d="m 1017.4805,97.43741 0,41.25977 -11.2305,0 0,-40.893559 q 0,-9.704591 -3.7841,-14.526369 -3.78422,-4.821779 -11.35258,-4.821779 -9.09424,0 -14.34326,5.798341 -5.24903,5.798341 -5.24903,15.808106 l 0,38.63526 -11.29151,0 0,-68.359384 11.29151,0 0,10.620119 q 4.02832,-6.164552 9.46045,-9.21631 5.49317,-3.051758 12.63428,-3.051758 11.77974,0 17.82224,7.32422 6.0425,7.263185 6.0425,21.423343 z"
       style="font-size:125.00002289px;fill:#757575;fill-opacity:1"
       id="path4226" />
    <path
       d="m 1071.0694,104.33438 q -13.6108,0 -18.8599,3.1128 -5.249,3.11279 -5.249,10.62012 0,5.98144 3.9063,9.52148 3.9673,3.47901 10.7422,3.47901 9.3383,0 14.9536,-6.5918 5.6762,-6.65283 5.6762,-17.63916 l 0,-2.50245 -11.1694,0 z m 22.3999,-4.638668 0,39.001468 -11.2305,0 0,-10.37597 q -3.8452,6.22558 -9.5825,9.21631 -5.7373,2.92968 -14.0381,2.92968 -10.498,0 -16.7236,-5.85937 -6.1646,-5.92041 -6.1646,-15.80811 0,-11.53565 7.6905,-17.39502 7.7514,-5.85938 23.0713,-5.85938 l 15.747,0 0,-1.098633 q 0,-7.751466 -5.1269,-11.962893 -5.0659,-4.272461 -14.2822,-4.272461 -5.8594,0 -11.4136,1.403809 -5.5542,1.403808 -10.6812,4.211426 l 0,-10.375978 q 6.1646,-2.380372 11.9629,-3.54004 5.7984,-1.220703 11.2915,-1.220703 14.8316,0 22.1558,7.690431 7.3242,7.690431 7.3242,23.315434 z"
       style="font-size:125.00002289px;fill:#757575;fill-opacity:1"
       id="path4228" />
    <path
       d="m 1161.6456,80.713775 0,-36.987312 11.2305,0 0,94.970717 -11.2305,0 0,-10.2539 q -3.5401,6.10351 -8.9722,9.09424 -5.3711,2.92968 -12.9394,2.92968 -12.3902,0 -20.2027,-9.88769 -7.7515,-9.8877 -7.7515,-26.00099 0,-16.113279 7.7515,-26.000976 7.8125,-9.887697 20.2027,-9.887697 7.5683,0 12.9394,2.990723 5.4321,2.929688 8.9722,9.033205 z m -38.2691,23.864745 q 0,12.39014 5.0659,19.47022 5.127,7.01905 14.0381,7.01905 8.9112,0 14.0381,-7.01905 5.127,-7.08008 5.127,-19.47022 0,-12.390134 -5.127,-19.409178 -5.1269,-7.08008 -14.0381,-7.08008 -8.9111,0 -14.0381,7.08008 -5.0659,7.019044 -5.0659,19.409178 z"
       style="font-size:125.00002289px;fill:#757575;fill-opacity:1"
       id="path4230" />
    <path
       d="m 1227.0753,104.33438 q -13.6108,0 -18.8599,3.1128 -5.249,3.11279 -5.249,10.62012 0,5.98144 3.9063,9.52148 3.9672,3.47901 10.7421,3.47901 9.3384,0 14.9537,-6.5918 5.6762,-6.65283 5.6762,-17.63916 l 0,-2.50245 -11.1694,0 z m 22.3999,-4.638668 0,39.001468 -11.2305,0 0,-10.37597 q -3.8452,6.22558 -9.5825,9.21631 -5.7373,2.92968 -14.0381,2.92968 -10.498,0 -16.7236,-5.85937 -6.1646,-5.92041 -6.1646,-15.80811 0,-11.53565 7.6905,-17.39502 7.7514,-5.85938 23.0713,-5.85938 l 15.747,0 0,-1.098633 q 0,-7.751466 -5.1269,-11.962893 -5.0659,-4.272461 -14.2823,-4.272461 -5.8593,0 -11.4135,1.403809 -5.5542,1.403808 -10.6812,4.211426 l 0,-10.375978 q 6.1646,-2.380372 11.9629,-3.54004 5.7984,-1.220703 11.2915,-1.220703 14.8316,0 22.1558,7.690431 7.3242,7.690431 7.3242,23.315434 z"
       style="font-size:125.00002289px;fill:#757575;fill-opacity:1"
       id="path4232" />
  </g>
</svg>
