<?xml version="1.0" encoding="UTF-8" standalone="no"?>
<svg
   xmlns:dc="http://purl.org/dc/elements/1.1/"
   xmlns:cc="http://creativecommons.org/ns#"
   xmlns:rdf="http://www.w3.org/1999/02/22-rdf-syntax-ns#"
   xmlns:svg="http://www.w3.org/2000/svg"
   xmlns="http://www.w3.org/2000/svg"
   xmlns:sodipodi="http://sodipodi.sourceforge.net/DTD/sodipodi-0.dtd"
   xmlns:inkscape="http://www.inkscape.org/namespaces/inkscape"
   id="Layer_4"
   viewBox="0 0 839 200"
   version="1.1"
   inkscape:version="0.91 r13725"
   sodipodi:docname="logo-light.svg">
  <metadata
     id="metadata76">
    <rdf:RDF>
      <cc:Work
         rdf:about="">
        <dc:format>image/svg+xml</dc:format>
        <dc:type
           rdf:resource="http://purl.org/dc/dcmitype/StillImage" />
      </cc:Work>
    </rdf:RDF>
  </metadata>
  <defs
     id="defs74">
    <filter
       style="color-interpolation-filters:sRGB;"
       inkscape:label="Brilliance"
       id="filter3543">
      <feColorMatrix
         values="10 -0.5 -0.5 0 0 -0.5 10 -0.5 0 0 -0.5 -0.5 10 0 0 0 0 0 1 0 "
         id="feColorMatrix3545"
         result="fbSourceGraphic" />
      <feColorMatrix
         result="fbSourceGraphicAlpha"
         in="fbSourceGraphic"
         values="0 0 0 -1 0 0 0 0 -1 0 0 0 0 -1 0 0 0 0 1 0"
         id="feColorMatrix3547" />
      <feColorMatrix
         id="feColorMatrix3549"
         values="10 -0.5 -0.5 0 0 -0.5 10 -0.5 0 0 -0.5 -0.5 10 0 0 0 0 0 1 0 "
         in="fbSourceGraphic" />
    </filter>
  </defs>
  <sodipodi:namedview
     pagecolor="#ffffff"
     bordercolor="#666666"
     borderopacity="1"
     objecttolerance="10"
     gridtolerance="10"
     guidetolerance="10"
     inkscape:pageopacity="0"
     inkscape:pageshadow="2"
     inkscape:window-width="1366"
     inkscape:window-height="684"
     id="namedview72"
     showgrid="false"
     inkscape:zoom="1.0727056"
     inkscape:cx="517.60417"
     inkscape:cy="79.812278"
     inkscape:window-x="0"
     inkscape:window-y="28"
     inkscape:window-maximized="1"
     inkscape:current-layer="Layer_4" />
  <style
     id="style3">.st0{fill:none;} .st1{fill:#FFC107;} .st2{fill:#0F9D58;} .st3{opacity:0.2;fill:#BF360C;enable-background:new ;} .st4{opacity:0.2;fill:#263238;enable-background:new ;} .st5{opacity:0.2;fill:#FFFFFF;enable-background:new ;} .st6{fill:url(#XMLID_126_);} .st7{fill:url(#XMLID_127_);} .st8{fill:#4285F4;} .st9{fill:#DB4437;} .st10{opacity:0.2;fill:#1A237E;enable-background:new ;} .st11{opacity:0.2;fill:#3E2723;enable-background:new ;} .st12{fill:url(#XMLID_128_);} .st13{fill:#FAFAFA;}</style>
  <g
     id="XMLID_60_">
    <g
       id="XMLID_61_">
      <g
         id="XMLID_62_">
        <path
           id="XMLID_106_"
           class="st0"
           d="M122.5 90.6L70.1 0H0l57.8 100L0 200h70.1l52.4-90.6c3.3-5.8 3.3-13 0-18.8z" />
        <path
           id="XMLID_105_"
           class="st1"
           d="M92.4 159.8l-16.6-28.7L35.9 200h34.2l22.8-39.4z" />
        <path
           id="XMLID_104_"
           class="st0"
           d="M122.5 90.6L70.1 0H0l57.8 100L0 200h70.1l52.4-90.6c3.3-5.8 3.3-13 0-18.8z" />
        <path
           id="XMLID_103_"
           class="st2"
           d="M57.8 100l18 31.1L35.9 200H0z" />
        <path
           id="XMLID_102_"
           class="st0"
           d="M122.5 90.6L70.1 0H0l57.8 100L0 200h70.1l52.4-90.6c3.3-5.8 3.3-13 0-18.8z" />
        <path
           id="XMLID_101_"
           class="st3"
           d="M70.1 198.4H36.8l-.9 1.6h34.2l22.8-39.4-.5-.8z" />
        <path
           id="XMLID_100_"
           class="st0"
           d="M122.5 90.6L70.1 0H0l57.8 100L0 200h70.1l52.4-90.6c3.3-5.8 3.3-13 0-18.8z" />
        <path
           id="XMLID_99_"
           class="st4"
           d="M.9 198.4L0 200h35.9l.9-1.6z" />
        <path
           id="XMLID_98_"
           class="st0"
           d="M122.5 90.6L70.1 0H0l57.8 100L0 200h70.1l52.4-90.6c3.3-5.8 3.3-13 0-18.8z" />
        <path
           id="XMLID_96_"
           class="st5"
           d="M0 200h.9l57.4-99.2-.5-.8z" />
        <path
           id="XMLID_94_"
           class="st0"
           d="M122.5 90.6L70.1 0H0l57.8 100L0 200h70.1l52.4-90.6c3.3-5.8 3.3-13 0-18.8z" />
        <radialGradient
           id="XMLID_126_"
           cx="92.62"
           cy="2707.501"
           r="69.162"
           gradientTransform="matrix(1 0 0 -1 0 2867.46)"
           gradientUnits="userSpaceOnUse">
          <stop
             offset="0"
             stop-color="#BF360C"
             stop-opacity=".2"
             id="stop20" />
          <stop
             offset="1"
             stop-color="#BF360C"
             stop-opacity=".02"
             id="stop22" />
        </radialGradient>
        <path
           id="XMLID_92_"
           class="st6"
           d="M92.9 160.6l-17.1-29.5-4.2 7.2z" />
        <path
           id="XMLID_90_"
           class="st0"
           d="M122.5 90.6L70.1 0H0l57.8 100L0 200h70.1l52.4-90.6c3.3-5.8 3.3-13 0-18.8z" />
        <radialGradient
           id="XMLID_127_"
           cx="92.423"
           cy="2707.063"
           r="69.723"
           gradientTransform="matrix(1 0 0 -1 0 2867.46)"
           gradientUnits="userSpaceOnUse">
          <stop
             offset="0"
             stop-color="#263238"
             stop-opacity=".2"
             id="stop27" />
          <stop
             offset="1"
             stop-color="#263238"
             stop-opacity=".02"
             id="stop29" />
        </radialGradient>
        <path
           id="XMLID_89_"
           class="st7"
           d="M71.6 138.3l4.2-7.2-18-31.1-8.5 14.8z" />
        <path
           id="XMLID_88_"
           class="st0"
           d="M122.5 90.6L70.1 0H0l57.8 100L0 200h70.1l52.4-90.6c3.3-5.8 3.3-13 0-18.8z" />
        <g
           id="XMLID_85_">
          <g
             id="XMLID_86_">
            <path
               id="XMLID_87_"
               class="st8"
               d="M35.9 0H0l92.9 160.6 17.9-31.1z" />
          </g>
        </g>
        <path
           id="XMLID_84_"
           class="st0"
           d="M122.5 90.6L70.1 0H0l57.8 100L0 200h70.1l52.4-90.6c3.3-5.8 3.3-13 0-18.8z" />
        <path
           id="XMLID_83_"
           class="st9"
           d="M122.5 109.4c3.4-5.8 3.4-13 0-18.8L70.1 0H35.9l74.9 129.5 11.7-20.1z" />
        <path
           id="XMLID_82_"
           class="st0"
           d="M122.5 90.6L70.1 0H0l57.8 100L0 200h70.1l52.4-90.6c3.3-5.8 3.3-13 0-18.8z" />
        <path
           id="XMLID_71_"
           class="st10"
           d="M110.8 129.5l-.4-.8L92.9 159 .9 0H0l92.9 160.6 17.9-31.1z" />
        <path
           id="XMLID_69_"
           class="st0"
           d="M122.5 90.6L70.1 0H0l57.8 100L0 200h70.1l52.4-90.6c3.3-5.8 3.3-13 0-18.8z" />
        <path
           id="XMLID_67_"
           class="st5"
           d="M70.1 1.6l52.4 90.6c1.5 2.7 2.3 5.6 2.5 8.6.1-3.5-.7-7-2.5-10.2L70.1 0H0l.9 1.6h69.2z" />
        <path
           id="XMLID_66_"
           class="st0"
           d="M122.5 90.6L70.1 0H0l57.8 100L0 200h70.1l52.4-90.6c3.3-5.8 3.3-13 0-18.8z" />
        <path
           id="XMLID_65_"
           class="st11"
           d="M110.8 129.5l11.6-20.1c1.8-3.1 2.6-6.7 2.5-10.2-.1 3-.9 5.9-2.5 8.6l-12.1 20.9.5.8z" />
        <path
           id="XMLID_64_"
           class="st0"
           d="M122.5 90.6L70.1 0H0l57.8 100L0 200h70.1l52.4-90.6c3.3-5.8 3.3-13 0-18.8z" />
        <radialGradient
           id="XMLID_128_"
           cx="-1.563"
           cy="2865.898"
           r="209.922"
           gradientTransform="matrix(1 0 0 -1 0 2867.46)"
           gradientUnits="userSpaceOnUse">
          <stop
             offset="0"
             stop-color="#FFF"
             stop-opacity=".1"
             id="stop46" />
          <stop
             offset="1"
             stop-color="#FFF"
             stop-opacity="0"
             id="stop48" />
        </radialGradient>
        <path
           id="XMLID_63_"
           class="st12"
           d="M122.5 90.6L70.1 0H0l57.8 100L0 200h70.1l52.4-90.6c3.3-5.8 3.3-13 0-18.8z" />
      </g>
    </g>
  </g>
  <path
     style="fill:#fafafa"
     inkscape:connector-curvature="0"
     d="m 275.5,51.8 c 0,10.9 -3.2,19.7 -9.7,26.1 -7.4,7.7 -17,11.6 -28.8,11.6 -11.3,0 -20.9,-3.9 -28.8,-11.8 -7.9,-7.8 -11.9,-17.6 -11.9,-29.1 0,-11.5 4,-21.3 11.9,-29.1 7.9,-7.8 17.5,-11.8 28.8,-11.8 5.6,0 11,1.1 16.1,3.3 5.1,2.2 9.2,5.1 12.2,8.8 l -6.9,6.9 c -5.2,-6.2 -12.3,-9.3 -21.4,-9.3 -8.2,0 -15.4,2.9 -21.4,8.7 -6,5.8 -9,13.3 -9,22.6 0,9.3 3,16.8 9,22.6 6,5.8 13.1,8.7 21.4,8.7 8.8,0 16,-2.9 21.9,-8.8 3.8,-3.8 6,-9.1 6.6,-15.9 l -28.5,0 0,-9.4 38,0 c 0.3,2.1 0.5,4 0.5,5.9 z"
     class="st13"
     id="XMLID_2_" />
  <path
     style="fill:#fafafa"
     inkscape:connector-curvature="0"
     d="m 285.4,87.8 0,-78.3 24,0 c 12,0 21.7,3.6 28.9,10.9 7.2,7.3 10.8,16.7 10.8,28.3 0,11.6 -3.6,21 -10.8,28.3 -7.2,7.3 -16.8,10.9 -28.9,10.9 l -24,0 z m 10.1,-9.6 13.9,0 c 9,0 16.2,-2.6 21.5,-7.8 5.3,-5.2 7.9,-12.4 7.9,-21.8 0,-9.3 -2.6,-16.5 -7.9,-21.7 -5.3,-5.2 -12.5,-7.8 -21.5,-7.8 l -13.9,0 0,59.1 z"
     class="st13"
     id="XMLID_4_" />
  <path
     style="fill:#fafafa"
     inkscape:connector-curvature="0"
     d="m 434.5,51.8 c 0,10.9 -3.2,19.7 -9.7,26.1 -7.4,7.7 -17,11.6 -28.8,11.6 -11.3,0 -20.9,-3.9 -28.8,-11.8 -7.9,-7.8 -11.9,-17.6 -11.9,-29.1 0,-11.5 4,-21.3 11.9,-29.1 7.9,-7.8 17.5,-11.8 28.8,-11.8 5.6,0 11,1.1 16.1,3.3 5.1,2.2 9.2,5.1 12.2,8.8 l -6.9,6.9 c -5.2,-6.2 -12.3,-9.3 -21.4,-9.3 -8.2,0 -15.4,2.9 -21.4,8.7 -6,5.8 -9,13.3 -9,22.6 0,9.3 3,16.8 9,22.6 6,5.8 13.1,8.7 21.4,8.7 8.8,0 16,-2.9 21.9,-8.8 3.8,-3.8 6,-9.1 6.6,-15.9 l -28.5,0 0,-9.4 38,0 c 0.3,2.1 0.5,4 0.5,5.9 z"
     class="st13"
     id="XMLID_8_" />
  <path
     style="fill:#fafafa"
     inkscape:connector-curvature="0"
     d="m 470.8,87.8 0,-78.3 24,0 c 12,0 21.7,3.6 28.9,10.9 7.2,7.3 10.8,16.7 10.8,28.3 0,11.6 -3.6,21 -10.8,28.3 -7.2,7.3 -16.8,10.9 -28.9,10.9 l -24,0 z m 10.1,-9.6 13.9,0 c 9,0 16.2,-2.6 21.5,-7.8 5.3,-5.2 7.9,-12.4 7.9,-21.8 0,-9.3 -2.6,-16.5 -7.9,-21.7 -5.3,-5.2 -12.5,-7.8 -21.5,-7.8 l -13.9,0 0,59.1 z"
     class="st13"
     id="XMLID_10_" />
  <path
     style="fill:#fafafa"
     inkscape:connector-curvature="0"
     d="m 567.4,89.6 c -8.1,0 -14.7,-2.7 -19.7,-8.1 -5.1,-5.4 -7.6,-12.2 -7.6,-20.5 0,-7.8 2.5,-14.5 7.4,-20.1 4.9,-5.6 11.2,-8.4 18.9,-8.4 7.9,0 14.3,2.6 19.1,7.8 4.8,5.2 7.2,12.1 7.2,20.8 l -0.1,1.9 -42.3,0 c 0.3,5.4 2.1,9.7 5.4,12.8 3.3,3.1 7.2,4.7 11.6,4.7 7.2,0 12.1,-3.1 14.7,-9.2 l 9,3.7 c -1.8,4.2 -4.6,7.6 -8.6,10.4 -4.2,2.8 -9.1,4.2 -15,4.2 z m 14.5,-35 c -0.2,-3.1 -1.6,-6 -4.2,-8.8 -2.6,-2.8 -6.4,-4.2 -11.5,-4.2 -3.7,0 -6.9,1.2 -9.7,3.5 -2.7,2.3 -4.6,5.5 -5.6,9.4 l 31,0 z"
     class="st13"
     id="XMLID_13_" />
  <path
     style="fill:#fafafa"
     inkscape:connector-curvature="0"
     d="M 613.7,87.8 592,34.2 l 11,0 15.8,41.6 0.2,0 16,-41.6 10.7,0 -21.9,53.6 -10.1,0 z"
     class="st13"
     id="XMLID_16_" />
  <path
     style="fill:#fafafa"
     inkscape:connector-curvature="0"
     d="m 661.6,87.8 -10.1,0 0,-78.3 45.7,0 0,9.6 -35.7,0 0,25.7 32.2,0 0,9.4 -32.2,0 0,33.6 z"
     class="st13"
     id="XMLID_18_" />
  <path
     style="fill:#fafafa"
     inkscape:connector-curvature="0"
     d="m 727.7,89.6 c -8.1,0 -14.7,-2.7 -19.7,-8.1 -5.1,-5.4 -7.6,-12.2 -7.6,-20.5 0,-7.8 2.5,-14.5 7.4,-20.1 4.9,-5.6 11.2,-8.4 18.9,-8.4 7.9,0 14.3,2.6 19.1,7.8 4.8,5.2 7.2,12.1 7.2,20.8 l -0.1,1.9 -42.3,0 c 0.3,5.4 2.1,9.7 5.4,12.8 3.3,3.1 7.2,4.7 11.6,4.7 7.2,0 12.1,-3.1 14.7,-9.2 l 9,3.7 c -1.8,4.2 -4.6,7.6 -8.6,10.4 -4.3,2.8 -9.2,4.2 -15,4.2 z m 14.4,-35 c -0.2,-3.1 -1.6,-6 -4.2,-8.8 -2.6,-2.8 -6.4,-4.2 -11.5,-4.2 -3.7,0 -6.9,1.2 -9.7,3.5 -2.7,2.3 -4.6,5.5 -5.6,9.4 l 31,0 z"
     class="st13"
     id="XMLID_20_" />
  <path
     style="fill:#fafafa"
     inkscape:connector-curvature="0"
     d="m 779.5,89.6 c -6,0 -10.9,-1.5 -14.8,-4.4 -3.9,-2.9 -6.8,-6.6 -8.6,-10.9 l 9,-3.7 c 2.8,6.7 7.7,10.1 14.5,10.1 3.1,0 5.7,-0.7 7.7,-2.1 2,-1.4 3,-3.2 3,-5.5 0,-3.5 -2.4,-5.9 -7.3,-7.1 l -10.8,-2.6 c -3.4,-0.9 -6.7,-2.5 -9.7,-5 -3.1,-2.4 -4.6,-5.7 -4.6,-9.9 0,-4.7 2.1,-8.6 6.3,-11.5 4.2,-3 9.2,-4.4 14.9,-4.4 4.7,0 9,1.1 12.7,3.2 3.7,2.2 6.4,5.2 8,9.2 l -8.8,3.6 c -2,-4.7 -6.1,-7.1 -12.2,-7.1 -3,0 -5.5,0.6 -7.5,1.9 -2,1.2 -3.1,2.9 -3.1,5 0,3.1 2.4,5.1 7.1,6.2 l 10.6,2.5 c 5,1.2 8.8,3.2 11.2,6 2.4,2.8 3.6,6.1 3.6,9.6 0,4.8 -2,8.8 -5.9,12 -4,3.3 -9.1,4.9 -15.3,4.9 z"
     class="st13"
     id="XMLID_27_" />
  <path
     style="fill:#fafafa"
     inkscape:connector-curvature="0"
     d="m 830.9,88.7 c -5.6,0 -9.9,-1.5 -12.9,-4.5 -3,-3 -4.4,-7.2 -4.4,-12.7 l 0,-28.1 -9.4,0 0,-9.2 9.4,0 0,-16.4 10.1,0 0,16.4 13.1,0 0,9.2 -13.1,0 0,27.3 c 0,5.8 2.4,8.8 7.2,8.8 1.8,0 3.4,-0.3 4.6,-0.9 l 3.5,8.6 c -2.2,1 -4.9,1.5 -8.1,1.5 z"
     class="st13"
     id="XMLID_29_" />
  <g
     id="g3551"
     transform="translate(78.306667,1.8644444)">
    <path
       id="XMLID_46_"
       class="st13"
       d="m 603.5,190.9 -47.7,0 0,-10.1 c 14.3,-14.4 23.4,-23.7 27.5,-28.1 3.6,-4 6,-7.1 7.2,-9.1 1.2,-2.1 1.9,-4.6 1.9,-7.7 0,-3.1 -1.2,-5.9 -3.7,-8.3 -2.5,-2.4 -5.8,-3.6 -10,-3.6 -3.8,0 -6.9,1.1 -9.2,3.3 -2.3,2.2 -3.8,4.6 -4.5,7.2 l -9.2,-3.7 c 1.2,-3.9 3.8,-7.7 7.8,-11.2 3.9,-3.5 9,-5.2 15.3,-5.2 6.9,0 12.6,2.1 17.1,6.3 4.4,4.2 6.7,9.3 6.7,15.2 0,7.3 -4,15.1 -11.9,23.4 l -21.9,22 34.7,0 0,9.6 z"
       inkscape:connector-curvature="0"
       style="fill:#fafafa" />
    <path
       id="XMLID_48_"
       class="st13"
       d="m 661.1,181.4 c -5.5,7.5 -12.8,11.3 -21.8,11.3 -9,0 -16.2,-3.8 -21.8,-11.3 -5.5,-7.5 -8.3,-16.8 -8.3,-27.9 0,-11.2 2.8,-20.5 8.3,-27.9 5.5,-7.5 12.8,-11.2 21.8,-11.2 9,0 16.2,3.7 21.8,11.2 5.5,7.5 8.3,16.8 8.3,27.9 0,11.1 -2.8,20.4 -8.3,27.9 z m -21.8,1.7 c 6,0 10.8,-2.8 14.4,-8.4 3.6,-5.6 5.4,-12.6 5.4,-21.1 0,-8.5 -1.8,-15.6 -5.4,-21.2 -3.6,-5.6 -8.4,-8.4 -14.4,-8.4 -6.1,0 -10.9,2.8 -14.4,8.4 -3.6,5.6 -5.4,12.6 -5.4,21.2 0,8.5 1.8,15.5 5.4,21.1 3.6,5.6 8.4,8.4 14.4,8.4 z"
       inkscape:connector-curvature="0"
       style="fill:#fafafa" />
    <path
       id="XMLID_51_"
       class="st13"
       d="m 701.3,190.9 -10.1,0 0,-62.3 -14.5,6.3 -3.8,-8.5 22,-10.3 6.5,0 0,74.8 z"
       inkscape:connector-curvature="0"
       style="fill:#fafafa" />
    <path
       id="XMLID_53_"
       class="st13"
       d="m 739.5,143.1 c 5.8,0 11.2,2.4 16.1,7.2 4.9,4.8 7.3,10.6 7.3,17.3 0,6.6 -2.5,12.5 -7.6,17.5 -5.1,5 -11.1,7.5 -18,7.5 -7.4,0 -13.6,-2.5 -18.4,-7.6 -4.9,-5.1 -7.3,-10.9 -7.3,-17.4 0,-6.9 2.9,-14.7 8.8,-23.2 l 20.3,-30.1 8.1,5.6 -17.8,24.7 0.2,0.2 c 1.8,-1.1 4.5,-1.7 8.3,-1.7 z m -2.2,39.8 c 4.2,0 7.9,-1.5 10.9,-4.4 3,-2.9 4.5,-6.5 4.5,-10.8 0,-4.2 -1.5,-7.8 -4.5,-10.8 -3,-3 -6.7,-4.4 -10.9,-4.4 -4.2,0 -7.9,1.5 -10.9,4.4 -3.1,3 -4.6,6.5 -4.6,10.8 0,4.3 1.5,7.9 4.5,10.8 3,3 6.7,4.4 11,4.4 z"
       inkscape:connector-curvature="0"
       style="fill:#fafafa" />
  </g>
  <g
     id="g3446"
     transform="matrix(0.46986389,0,0,0.46819997,235.08733,71.161796)"
     style="filter:url(#filter3543)">
    <path
       id="path4220"
       style="font-style:normal;font-weight:normal;font-size:125.00002289px;line-height:125%;font-family:sans-serif;letter-spacing:0px;word-spacing:0px;fill:#757575;fill-opacity:1;stroke:none;stroke-width:1px;stroke-linecap:butt;stroke-linejoin:miter;stroke-opacity:1"
       d="m 38.128392,239.33695 0,-42.23531 -34.1477503,0 0,-17.48395 54.8433403,0 0,67.51332 q -12.10693,8.74195 -26.69732,13.27094 -14.5904,4.42363 -31.14688033,4.42363 -36.21729967,0 -56.70593967,-21.48628 -20.38517,-21.59162 -20.38517,-60.03523 0,-38.54893 20.38517,-60.03523 20.48864,-21.59161 56.70593967,-21.59161 15.10780033,0 28.66340033,3.7917 13.65909,3.7917 25.14516,11.16445 l 0,22.64486 q -11.58954,-10.00587 -24.62776,-15.06147 -13.03823,-5.0556 -27.4216703,-5.0556 -28.3529797,0 -42.6329397,16.11472 -14.17649,16.11472 -14.17649,48.02818 0,31.80813 14.17649,47.92287 14.27996,16.11471 42.6329397,16.11471 11.0721403,0 19.7643003,-1.89586 8.69215,-2.00117 15.62518,-6.10884 z"
       inkscape:connector-curvature="0" />
    <path
       id="path4222"
       style="font-style:normal;font-weight:normal;font-size:125.00002289px;line-height:125%;font-family:sans-serif;letter-spacing:0px;word-spacing:0px;fill:#757575;fill-opacity:1;stroke:none;stroke-width:1px;stroke-linecap:butt;stroke-linejoin:miter;stroke-opacity:1"
       d="m 163.44023,161.9231 q -3.20782,-1.89585 -7.0365,-2.73845 -3.72522,-0.94792 -8.27824,-0.94792 -16.14257,0 -24.83471,10.74314 -8.58868,10.63782 -8.58868,30.64957 l 0,62.14172 -19.143438,0 0,-117.96395 19.143438,0 0,18.32654 q 6.00172,-10.74314 15.62518,-15.90407 9.62345,-5.26624 23.38603,-5.26624 1.96607,0 4.34606,0.31597 2.38,0.21065 5.27739,0.73728 l 0.10342,19.90641 z"
       inkscape:connector-curvature="0" />
    <path
       id="path4224"
       style="font-style:normal;font-weight:normal;font-size:125.00002289px;line-height:125%;font-family:sans-serif;letter-spacing:0px;word-spacing:0px;fill:#757575;fill-opacity:1;stroke:none;stroke-width:1px;stroke-linecap:butt;stroke-linejoin:miter;stroke-opacity:1"
       d="m 236.28876,202.47321 q -23.0756,0 -31.9747,5.37158 -8.8991,5.37157 -8.8991,18.32655 0,10.32183 6.6226,16.43068 6.726,6.00353 18.2121,6.00353 15.8321,0 25.3521,-11.3751 9.6234,-11.48041 9.6234,-30.4389 l 0,-4.31834 -18.9364,0 z m 37.9764,-8.00469 0,67.30264 -19.04,0 0,-17.90523 q -6.5191,10.74314 -16.246,15.90407 -9.7269,5.05558 -23.7999,5.05558 -17.7982,0 -28.353,-10.11118 -10.45127,-10.21652 -10.45127,-27.27917 0,-19.90642 13.03822,-30.01761 13.14175,-10.1112 39.11465,-10.1112 l 26.6973,0 0,-1.89585 q 0,-13.37627 -8.6921,-20.6437 -8.5887,-7.37274 -24.2138,-7.37274 -9.9339,0 -19.3504,2.42247 -9.4165,2.42248 -18.10867,7.26742 l 0,-17.90524 q 10.45127,-4.10767 20.28167,-6.10884 9.8304,-2.1065 19.1434,-2.1065 25.1452,0 37.5625,13.27094 12.4174,13.27094 12.4174,40.23414 z"
       inkscape:connector-curvature="0" />
    <path
       id="path4226"
       style="font-style:normal;font-weight:normal;font-size:125.00002289px;line-height:125%;font-family:sans-serif;letter-spacing:0px;word-spacing:0px;fill:#757575;fill-opacity:1;stroke:none;stroke-width:1px;stroke-linecap:butt;stroke-linejoin:miter;stroke-opacity:1"
       d="m 409.92476,190.57149 0,71.19967 -19.04,0 0,-70.56772 q 0,-16.74667 -6.4155,-25.06734 -6.4157,-8.32067 -19.247,-8.32067 -15.4182,0 -24.3173,10.00587 -8.8991,10.00587 -8.8991,27.27916 l 0,66.6707 -19.1435,0 0,-117.96395 19.1435,0 0,18.32654 q 6.8295,-10.63782 16.0391,-15.90407 9.313,-5.26624 21.4199,-5.26624 19.9712,0 30.2155,12.63899 10.2444,12.53367 10.2444,36.96906 z"
       inkscape:connector-curvature="0" />
    <path
       id="path4228"
       style="font-style:normal;font-weight:normal;font-size:125.00002289px;line-height:125%;font-family:sans-serif;letter-spacing:0px;word-spacing:0px;fill:#757575;fill-opacity:1;stroke:none;stroke-width:1px;stroke-linecap:butt;stroke-linejoin:miter;stroke-opacity:1"
       d="m 500.77846,202.47321 q -23.0755,0 -31.9747,5.37158 -8.8991,5.37157 -8.8991,18.32655 0,10.32183 6.6227,16.43068 6.7261,6.00353 18.2121,6.00353 15.832,0 25.3521,-11.3751 9.6233,-11.48041 9.6233,-30.4389 l 0,-4.31834 -18.9364,0 z m 37.9764,-8.00469 0,67.30264 -19.04,0 0,-17.90523 q -6.519,10.74314 -16.246,15.90407 -9.7269,5.05558 -23.7999,5.05558 -17.7982,0 -28.353,-10.11118 -10.4513,-10.21652 -10.4513,-27.27917 0,-19.90642 13.0383,-30.01761 13.1416,-10.1112 39.1147,-10.1112 l 26.6972,0 0,-1.89585 q 0,-13.37627 -8.692,-20.6437 -8.5887,-7.37274 -24.2138,-7.37274 -9.934,0 -19.3505,2.42247 -9.4165,2.42248 -18.1087,7.26742 l 0,-17.90524 q 10.4514,-4.10767 20.2817,-6.10884 9.8305,-2.1065 19.1434,-2.1065 25.1453,0 37.5626,13.27094 12.4173,13.27094 12.4173,40.23414 z"
       inkscape:connector-curvature="0" />
    <path
       id="path4230"
       style="font-style:normal;font-weight:normal;font-size:125.00002289px;line-height:125%;font-family:sans-serif;letter-spacing:0px;word-spacing:0px;fill:#757575;fill-opacity:1;stroke:none;stroke-width:1px;stroke-linecap:butt;stroke-linejoin:miter;stroke-opacity:1"
       d="m 654.33986,161.71245 0,-63.826914 19.04,0 0,163.885624 -19.04,0 0,-17.69458 q -6.0018,10.53249 -15.2113,15.69342 -9.1061,5.05558 -21.9373,5.05558 -21.0061,0 -34.2513,-17.06263 -13.1417,-17.06264 -13.1417,-44.86844 0,-27.80579 13.1417,-44.86843 13.2452,-17.06264 34.2513,-17.06264 12.8312,0 21.9373,5.16092 9.2095,5.0556 15.2113,15.58809 z m -64.8808,41.18206 q 0,21.38097 8.5887,33.59866 8.6922,12.11238 23.7999,12.11238 15.1079,0 23.8,-12.11238 8.6922,-12.21769 8.6922,-33.59866 0,-21.38097 -8.6922,-33.49334 -8.6921,-12.21769 -23.8,-12.21769 -15.1077,0 -23.7999,12.21769 -8.5887,12.11237 -8.5887,33.49334 z"
       inkscape:connector-curvature="0" />
    <path
       id="path4232"
       style="font-style:normal;font-weight:normal;font-size:125.00002289px;line-height:125%;font-family:sans-serif;letter-spacing:0px;word-spacing:0px;fill:#757575;fill-opacity:1;stroke:none;stroke-width:1px;stroke-linecap:butt;stroke-linejoin:miter;stroke-opacity:1"
       d="m 765.26826,202.47321 q -23.0755,0 -31.9747,5.37158 -8.8991,5.37157 -8.8991,18.32655 0,10.32183 6.6227,16.43068 6.7259,6.00353 18.2119,6.00353 15.8322,0 25.3523,-11.3751 9.6233,-11.48041 9.6233,-30.4389 l 0,-4.31834 -18.9364,0 z m 37.9764,-8.00469 0,67.30264 -19.04,0 0,-17.90523 q -6.5191,10.74314 -16.246,15.90407 -9.7269,5.05558 -23.7999,5.05558 -17.7982,0 -28.353,-10.11118 -10.4513,-10.21652 -10.4513,-27.27917 0,-19.90642 13.0383,-30.01761 13.1416,-10.1112 39.1147,-10.1112 l 26.6972,0 0,-1.89585 q 0,-13.37627 -8.692,-20.6437 -8.5887,-7.37274 -24.214,-7.37274 -9.9338,0 -19.3503,2.42247 -9.4165,2.42248 -18.1087,7.26742 l 0,-17.90524 q 10.4514,-4.10767 20.2817,-6.10884 9.8305,-2.1065 19.1434,-2.1065 25.1453,0 37.5626,13.27094 12.4173,13.27094 12.4173,40.23414 z"
       inkscape:connector-curvature="0" />
  </g>
</svg>
